# xmcd
#
# Track frame offsets:
#	150
#	9892
#	19892
#	29742
#	41350
#	50492
#	60665
#	74058
#	84719
#	95999
#	107611
#	117470
#	129678
#	142207
#	155858
#	165342
#	174044
#	184761
#	195150
#	205745
#	222717
#	235173
#	246064
#
# Disc length: 3468 seconds
#
# Revision: 1
# Processed by: cddbd v1.4PL0 Copyright (c) Steve Scherf et al.
# Submitted via: audiograbber 1.80.04
#
DISCID=4f0d8a17
DTITLE=Larry Heberlin - Singles
DYEAR=1900
DGENRE=Country
TTITLE0=If I Know Then
TTITLE1=When I Stop To Think About It
TTITLE2=I'm Gonna Write A Sad Song
TTITLE3=I'm Lost For Words
TTITLE4=Honda
TTITLE5=Waitin' For Tomorrow
TTITLE6=Stay In Your Own Backyard
TTITLE7=Happy Circus Clown
TTITLE8=Looking For A Rainbow
TTITLE9=I Won't Be At Your Wedding
TTITLE10=World
TTITLE11=Just Like I Expected Her To Do
TTITLE12=Deeper Then The Summer Sun
TTITLE13=I Finily Made It
TTITLE14=Julianna
TTITLE15=What About God And Country
TTITLE16=I Got You Back In My Heart
TTITLE17=The Cozy Inn
TTITLE18=Dixie You My Kind Of Woman
TTITLE19=I'm Going  Back To Nashville
TTITLE20=I Realy Know Love
TTITLE21=Hey Beautiful Lady
TTITLE22=somewhere in the world
EXTD=
EXTT0=
EXTT1=
EXTT2=
EXTT3=
EXTT4=
EXTT5=
EXTT6=
EXTT7=
EXTT8=
EXTT9=
EXTT10=
EXTT11=
EXTT12=
EXTT13=
EXTT14=
EXTT15=
EXTT16=
EXTT17=
EXTT18=
EXTT19=
EXTT20=
EXTT21=
EXTT22=
PLAYORDER=
